<svg width="24" height="29" fill="none" xmlns="http://www.w3.org/2000/svg"><path d="M19.84 20.747h-1.546l.008-.904c0-.402.327-.73.727-.73h.099c.4 0 .73.328.73.73l-.019.904Zm-5.794-1.938c-.392 0-.713.266-.713.59v4.398c0 .324.32.59.713.59.393 0 .714-.266.714-.59V19.4c0-.325-.321-.59-.714-.59Zm9.409-2.46v8.366c0 2.007-1.727 3.649-3.838 3.649H3.837C1.727 28.364 0 26.722 0 24.715V16.35c0-2.007 1.726-3.65 3.837-3.65h15.78c2.11 0 3.837 1.643 3.837 3.65ZM4.89 25.624l-.001-8.812 1.956.001v-1.306l-5.214-.008v1.284l1.627.005v8.836H4.89Zm5.864-7.499H9.123v4.706c0 .68.04 1.02-.003 1.14-.132.366-.728.753-.96.04-.04-.125-.005-.501-.006-1.148l-.007-4.738H6.526l.005 4.663c0 .715-.016 1.248.005 1.49.04.428.026.927.42 1.212.733.533 2.14-.08 2.491-.841l-.003.972 1.31.001v-7.497Zm5.217 5.389-.004-3.917c0-1.492-1.109-2.387-2.613-1.179l.007-2.912-1.63.003-.008 10.05 1.34-.02.122-.626c1.712 1.583 2.788.499 2.786-1.4Zm5.104-.52L19.852 23l-.003.167v.687a.67.67 0 0 1-.668.668h-.24a.67.67 0 0 1-.668-.668V22.046h2.8v-1.062c0-.777-.02-1.552-.084-1.996-.2-1.404-2.155-1.627-3.143-.908-.31.224-.547.525-.684.928-.14.404-.208.956-.208 1.656V23c0 3.882 4.68 3.334 4.121-.005Zm-6.273-12.677c.084.206.215.373.393.499.175.124.399.186.667.186.235 0 .443-.064.625-.196.18-.131.333-.328.457-.59l-.03.645h1.817V3.07h-1.43v6.063a.599.599 0 0 1-.597.597.599.599 0 0 1-.596-.597V3.07h-1.493v5.254c0 .67.012 1.116.031 1.342.021.225.072.44.156.65Zm-5.509-4.4c0-.748.062-1.332.185-1.753.124-.42.346-.757.668-1.011.322-.256.733-.384 1.233-.384.42 0 .78.083 1.082.246.302.164.535.377.697.64.165.263.277.533.337.81.06.281.09.705.09 1.276v1.97c0 .723-.028 1.255-.084 1.592a2.54 2.54 0 0 1-.358.947 1.707 1.707 0 0 1-.7.648c-.287.14-.615.209-.986.209-.414 0-.763-.058-1.051-.178-.289-.12-.512-.3-.67-.54a2.408 2.408 0 0 1-.342-.874c-.068-.34-.101-.853-.101-1.536V5.915Zm1.424 3.094c0 .441.326.802.723.802.397 0 .721-.36.721-.802V4.863c0-.44-.324-.801-.721-.801-.397 0-.723.36-.723.8V9.01Zm-5.031 2.094h1.715l.002-5.975L9.429.01H7.554L6.476 3.812 5.384 0H3.527l2.156 5.132.003 5.972Z" fill="#000"/></svg>